SplineFontDB: 3.2
FontName: Essiah
FullName: Essiah
FamilyName: Essiah
Weight: Regular
Copyright: Copyright (c) 2023, Michael Chapman
UComments: "2023-12-2: Created with FontForge (http://fontforge.org)"
Version: 001.000
ItalicAngle: 0
UnderlinePosition: -102
UnderlineWidth: 51
Ascent: 819
Descent: 205
InvalidEm: 0
LayerCount: 2
Layer: 0 0 "Back" 1
Layer: 1 0 "Fore" 0
XUID: [1021 111 1703824445 12715359]
FSType: 0
OS2Version: 0
OS2_WeightWidthSlopeOnly: 0
OS2_UseTypoMetrics: 1
CreationTime: 1701562182
ModificationTime: 1701630517
PfmFamily: 17
TTFWeight: 400
TTFWidth: 5
LineGap: 92
VLineGap: 0
OS2TypoAscent: 1638
OS2TypoAOffset: 0
OS2TypoDescent: -410
OS2TypoDOffset: 0
OS2TypoLinegap: 92
OS2WinAscent: 819
OS2WinAOffset: 0
OS2WinDescent: 205
OS2WinDOffset: 0
HheadAscent: 819
HheadAOffset: 0
HheadDescent: 205
HheadDOffset: 0
OS2Vendor: 'PfEd'
MarkAttachClasses: 1
DEI: 91125
Encoding: ISO8859-1
UnicodeInterp: none
NameList: AGL For New Fonts
DisplaySize: -48
AntiAlias: 1
FitToEm: 0
WinInfo: 48 16 6
BeginPrivate: 0
EndPrivate
Grid
512 1331 m 0
 512 -717 l 1024
409 1329 m 4
 409 -719 l 1028
-1024 357 m 0
 2048 357 l 1024
-1024 460 m 0
 2048 460 l 1024
EndSplineSet
BeginChars: 256 256

StartChar: A
Encoding: 65 65 0
Width: 920
Flags: HW
LayerCount: 2
Fore
SplineSet
821 460 m 5
 821 357 l 5
 100 357 l 5
 100 460 l 5
 821 460 l 5
32 411 m 0
 32 648 223 839 460 839 c 0
 697 839 888 648 888 411 c 0
 888 174 888 160 888 0 c 25
 785 0 l 17
 785 161 785 231 785 411 c 0
 785 591 640 736 460 736 c 0
 280 736 135 591 135 411 c 0
 135 231 135 160 135 0 c 25
 32 0 l 17
 32 160 32 174 32 411 c 0
EndSplineSet
EndChar

StartChar: c
Encoding: 99 99 1
Width: 920
Flags: HW
LayerCount: 2
Fore
SplineSet
460 0 m 0
 223 0 32 174 32 411 c 0
 32 648 223 819 460 819 c 0
 697 819 886 819 886 819 c 5
 886 716 l 5
 886 716 640 716 460 716 c 0
 280 716 135 591 135 411 c 0
 135 231 280 103 460 103 c 0
 640 103 886 103 886 103 c 13
 886 0 l 21
 886 0 697 0 460 0 c 0
EndSplineSet
EndChar

StartChar: e
Encoding: 101 101 2
Width: 920
Flags: HW
LayerCount: 2
Fore
SplineSet
409 58 m 1
 409 760 l 1
 512 760 l 1
 512 58 l 1
 409 58 l 1
460 0 m 0
 223 0 32 174 32 411 c 0
 32 648 223 819 460 819 c 0
 697 819 886 819 886 819 c 1
 886 716 l 1
 886 716 640 716 460 716 c 0
 280 716 135 591 135 411 c 0
 135 231 280 103 460 103 c 0
 640 103 886 103 886 103 c 9
 886 0 l 17
 886 0 697 0 460 0 c 0
EndSplineSet
EndChar

StartChar: o
Encoding: 111 111 3
Width: 920
Flags: HW
LayerCount: 2
Fore
SplineSet
135 411 m 0
 135 231 280 86 460 86 c 0
 640 86 785 231 785 411 c 0
 785 591 640 736 460 736 c 0
 280 736 135 591 135 411 c 0
32 411 m 0
 32 648 223 839 460 839 c 0
 697 839 888 648 888 411 c 0
 888 174 697 -17 460 -17 c 0
 223 -17 32 174 32 411 c 0
EndSplineSet
EndChar

StartChar: exclam
Encoding: 33 33 37
Width: 920
Flags: HW
LayerCount: 2
Fore
SplineSet
409 103 m 1
 512 103 l 1
 512 0 l 1
 409 0 l 1
 409 103 l 1
409 198 m 1
 512 198 l 1
 512 819 l 1
 409 819 l 1
 409 198 l 1
EndSplineSet
EndChar

StartChar: numbersign
Encoding: 35 35 39
Width: 920
Flags: HW
LayerCount: 2
Fore
SplineSet
277 462 m 1
 645 462 l 1
 645 359 l 1
 277 359 l 1
 277 462 l 1
512 0 m 1
 409 0 l 1
 614 462 l 1
 722 462 l 1
 512 0 l 1
409 0 m 1
 199 462 l 1
 307 462 l 1
 512 0 l 1
 409 0 l 1
EndSplineSet
EndChar

StartChar: percent
Encoding: 37 37 41
Width: 920
Flags: HW
LayerCount: 2
Fore
SplineSet
817 357 m 1
 920 357 l 1
 920 0 l 1
 817 0 l 1
 817 357 l 1
0 819 m 1
 103 819 l 1
 103 460 l 1
 0 460 l 1
 0 819 l 1
121 0 m 1
 -24 0 l 1
 795 819 l 1
 940 819 l 1
 121 0 l 1
EndSplineSet
EndChar

StartChar: parenleft
Encoding: 40 40 44
Width: 920
Flags: HW
LayerCount: 2
Fore
SplineSet
795 0 m 0
 558 0 512 174 512 411 c 0
 512 648 558 819 795 819 c 0
 795 716 l 0
 615 716 615 591 615 411 c 0
 615 231 615 103 795 103 c 0
 795 0 l 0
EndSplineSet
EndChar

StartChar: parenright
Encoding: 41 41 45
Width: 920
Flags: HW
LayerCount: 2
Fore
SplineSet
126 0 m 0
 363 0 409 174 409 411 c 0
 409 648 363 819 126 819 c 0
 126 716 l 0
 306 716 306 591 306 411 c 0
 306 231 306 103 126 103 c 0
 126 0 l 0
EndSplineSet
EndChar

StartChar: asterisk
Encoding: 42 42 46
Width: 920
Flags: HW
LayerCount: 2
Fore
SplineSet
332 206 m 1
 259 279 l 1
 591 611 l 1
 664 538 l 1
 332 206 l 1
258 539 m 1
 330 612 l 1
 663 279 l 1
 590 206 l 1
 258 539 l 1
EndSplineSet
EndChar

StartChar: plus
Encoding: 43 43 47
Width: 920
Flags: HW
LayerCount: 2
Fore
SplineSet
226 357 m 1
 226 460 l 1
 696 460 l 1
 696 357 l 1
 226 357 l 1
409 645 m 1
 512 645 l 1
 512 175 l 1
 409 175 l 1
 409 645 l 1
EndSplineSet
EndChar

StartChar: comma
Encoding: 44 44 48
Width: 920
Flags: HW
LayerCount: 2
Fore
SplineSet
409 460 m 5
 512 460 l 5
 512 357 l 5
 409 357 l 5
 409 460 l 5
EndSplineSet
EndChar

StartChar: hyphen
Encoding: 45 45 49
Width: 920
Flags: HW
LayerCount: 2
Fore
SplineSet
226 357 m 1
 226 460 l 1
 696 460 l 1
 696 357 l 1
 226 357 l 1
EndSplineSet
EndChar

StartChar: period
Encoding: 46 46 50
Width: 920
Flags: HW
LayerCount: 2
Fore
SplineSet
409 645 m 1
 512 645 l 1
 512 175 l 1
 409 175 l 1
 409 645 l 1
EndSplineSet
EndChar

StartChar: slash
Encoding: 47 47 51
Width: 920
Flags: HW
LayerCount: 2
Fore
SplineSet
121 0 m 1
 -24 0 l 1
 795 819 l 1
 940 819 l 1
 121 0 l 1
EndSplineSet
EndChar

StartChar: colon
Encoding: 58 58 62
Width: 920
Flags: HW
LayerCount: 2
Fore
SplineSet
409 357 m 1
 512 357 l 1
 512 254 l 1
 409 254 l 1
 409 357 l 1
409 563 m 5
 512 563 l 5
 512 460 l 5
 409 460 l 5
 409 563 l 5
EndSplineSet
EndChar

StartChar: semicolon
Encoding: 59 59 63
Width: 920
Flags: HW
LayerCount: 2
Fore
SplineSet
277 462 m 1
 645 462 l 1
 645 359 l 1
 277 359 l 1
 277 462 l 1
512 0 m 1
 409 0 l 1
 614 462 l 1
 722 462 l 1
 512 0 l 1
409 0 m 1
 199 462 l 1
 307 462 l 1
 512 0 l 1
 409 0 l 1
EndSplineSet
EndChar

StartChar: less
Encoding: 60 60 64
Width: 920
Flags: HW
LayerCount: 2
Fore
SplineSet
512 592 m 1
 512 224 l 1
 409 224 l 1
 409 592 l 1
 512 592 l 1
33 357 m 1
 33 460 l 1
 512 255 l 1
 512 147 l 1
 33 357 l 1
33 460 m 1
 512 670 l 1
 512 562 l 1
 33 357 l 1
 33 460 l 1
EndSplineSet
EndChar

StartChar: equal
Encoding: 61 61 65
Width: 920
Flags: HW
LayerCount: 2
Fore
SplineSet
225 254 m 1
 225 357 l 1
 695 357 l 1
 695 254 l 1
 225 254 l 1
226 460 m 1
 226 563 l 1
 696 563 l 1
 696 460 l 1
 226 460 l 1
EndSplineSet
EndChar

StartChar: greater
Encoding: 62 62 66
Width: 920
Flags: HW
LayerCount: 2
Fore
SplineSet
409 592 m 1
 409 224 l 1
 512 224 l 1
 512 592 l 1
 409 592 l 1
888 357 m 1
 888 460 l 1
 409 255 l 1
 409 147 l 1
 888 357 l 1
888 460 m 1
 409 670 l 1
 409 562 l 1
 888 357 l 1
 888 460 l 1
EndSplineSet
EndChar

StartChar: question
Encoding: 63 63 67
Width: 920
Flags: HW
LayerCount: 2
Fore
SplineSet
409 716 m 1
 512 716 l 1
 512 819 l 1
 409 819 l 1
 409 716 l 1
409 621 m 1
 512 621 l 1
 512 0 l 1
 409 0 l 1
 409 621 l 1
EndSplineSet
EndChar

StartChar: B
Encoding: 66 66 69
Width: 920
Flags: HW
LayerCount: 2
Fore
SplineSet
42 357 m 1
 42 460 l 1
 888 96 l 1
 888 -12 l 1
 42 357 l 1
42 460 m 1
 888 829 l 1
 888 721 l 1
 42 357 l 1
 42 460 l 1
EndSplineSet
EndChar

StartChar: C
Encoding: 67 67 70
Width: 920
Flags: HW
LayerCount: 2
Fore
SplineSet
409 586 m 1
 512 586 l 1
 512 226 l 1
 409 226 l 1
 409 586 l 1
42 357 m 1
 42 460 l 1
 888 96 l 1
 888 -12 l 1
 42 357 l 1
42 460 m 1
 888 829 l 1
 888 721 l 1
 42 357 l 1
 42 460 l 1
EndSplineSet
EndChar

StartChar: D
Encoding: 68 68 71
Width: 920
Flags: HW
LayerCount: 2
Fore
SplineSet
409 47 m 1
 512 47 l 1
 512 819 l 1
 409 819 l 1
 409 47 l 1
42 0 m 1
 888 0 l 1
 888 103 l 1
 42 103 l 1
 42 0 l 1
EndSplineSet
EndChar

StartChar: E
Encoding: 69 69 72
Width: 920
Flags: HW
LayerCount: 2
Fore
SplineSet
85 460 m 1
 888 460 l 1
 888 357 l 1
 85 357 l 1
 85 460 l 1
460 0 m 0
 223 0 32 174 32 411 c 0
 32 648 223 819 460 819 c 0
 697 819 888 819 888 819 c 1
 888 716 l 1
 888 716 640 716 460 716 c 0
 280 716 135 591 135 411 c 0
 135 231 280 103 460 103 c 0
 640 103 888 103 888 103 c 9
 888 0 l 17
 888 0 697 0 460 0 c 0
EndSplineSet
EndChar

StartChar: F
Encoding: 70 70 73
Width: 920
Flags: HW
LayerCount: 2
Fore
SplineSet
91 460 m 1
 888 460 l 1
 888 357 l 1
 91 357 l 1
 91 460 l 1
42 819 m 1
 145 819 l 1
 145 0 l 1
 42 0 l 1
 42 819 l 1
EndSplineSet
EndChar

StartChar: G
Encoding: 71 71 74
Width: 920
Flags: HW
LayerCount: 2
Fore
SplineSet
888 819 m 5
 42 819 l 1
 42 716 l 1
 787 716 l 5
 787 0 l 5
 888 0 l 5
 888 819 l 5
EndSplineSet
EndChar

StartChar: H
Encoding: 72 72 75
Width: 920
Flags: HW
LayerCount: 2
Fore
SplineSet
256 460 m 5
 256 357 l 5
 666 357 l 5
 666 460 l 5
 256 460 l 5
512 819 m 1
 409 819 l 1
 0 0 l 1
 103 0 l 1
 512 819 l 1
409 819 m 1
 817 0 l 1
 920 0 l 1
 512 819 l 1
 409 819 l 1
EndSplineSet
EndChar

StartChar: I
Encoding: 73 73 76
Width: 920
Flags: HW
LayerCount: 2
Fore
SplineSet
833 460 m 1
 42 460 l 1
 42 357 l 1
 833 357 l 1
 833 460 l 1
458 0 m 0
 695 0 886 174 886 411 c 0
 886 648 695 819 458 819 c 0
 221 819 42 819 42 819 c 1
 42 716 l 1
 42 716 278 716 458 716 c 0
 638 716 783 591 783 411 c 0
 783 231 638 103 458 103 c 0
 278 103 42 103 42 103 c 9
 42 0 l 17
 42 0 221 0 458 0 c 0
EndSplineSet
EndChar

StartChar: J
Encoding: 74 74 77
Width: 920
Flags: HW
LayerCount: 2
Fore
SplineSet
888 0 m 1
 42 0 l 1
 42 103 l 1
 787 103 l 1
 787 819 l 1
 888 819 l 1
 888 0 l 1
EndSplineSet
EndChar

StartChar: K
Encoding: 75 75 78
Width: 920
Flags: HW
LayerCount: 2
Fore
SplineSet
460 0 m 0
 223 0 32 174 32 411 c 0
 32 648 223 819 460 819 c 0
 697 819 886 819 886 819 c 5
 886 716 l 5
 886 716 640 716 460 716 c 0
 280 716 135 591 135 411 c 0
 135 231 280 103 460 103 c 0
 640 103 886 103 886 103 c 13
 886 0 l 21
 886 0 697 0 460 0 c 0
EndSplineSet
EndChar

StartChar: L
Encoding: 76 76 79
Width: 920
Flags: HW
LayerCount: 2
Fore
SplineSet
512 819 m 1
 409 819 l 1
 0 0 l 1
 103 0 l 1
 512 819 l 1
409 819 m 1
 817 0 l 1
 920 0 l 1
 512 819 l 1
 409 819 l 1
EndSplineSet
EndChar

StartChar: M
Encoding: 77 77 80
Width: 920
Flags: HW
LayerCount: 2
Fore
SplineSet
888 411 m 0
 888 174 697 -17 460 -17 c 0
 223 -17 32 174 32 411 c 0
 32 648 32 660 32 819 c 25
 135 819 l 17
 135 660 135 591 135 411 c 0
 135 231 280 86 460 86 c 0
 640 86 785 231 785 411 c 0
 785 591 785 659 785 819 c 25
 888 819 l 25
 888 659 888 648 888 411 c 0
EndSplineSet
EndChar

StartChar: N
Encoding: 78 78 81
Width: 920
Flags: HW
LayerCount: 2
Fore
SplineSet
121 0 m 1
 495 374 l 1
 421 445 l 1
 -24 0 l 1
 121 0 l 1
795 0 m 1
 940 0 l 1
 121 819 l 1
 -24 819 l 1
 795 0 l 1
EndSplineSet
EndChar

StartChar: O
Encoding: 79 79 82
Width: 920
Flags: HW
LayerCount: 2
Fore
SplineSet
409 781 m 1
 512 781 l 1
 512 41 l 1
 409 41 l 1
 409 781 l 1
135 411 m 0
 135 231 280 86 460 86 c 0
 640 86 785 231 785 411 c 0
 785 591 640 736 460 736 c 0
 280 736 135 591 135 411 c 0
32 411 m 0
 32 648 223 839 460 839 c 0
 697 839 888 648 888 411 c 0
 888 174 697 -17 460 -17 c 0
 223 -17 32 174 32 411 c 0
EndSplineSet
EndChar

StartChar: P
Encoding: 80 80 83
Width: 920
Flags: HW
LayerCount: 2
Fore
SplineSet
835 460 m 1
 42 460 l 1
 42 357 l 1
 835 357 l 1
 835 460 l 1
888 819 m 1
 781 819 l 1
 781 0 l 1
 888 0 l 1
 888 819 l 1
EndSplineSet
EndChar

StartChar: Q
Encoding: 81 81 84
Width: 920
Flags: HW
LayerCount: 2
Fore
SplineSet
460 0 m 0
 223 0 32 174 32 411 c 0
 32 648 223 819 460 819 c 0
 697 819 886 819 886 819 c 5
 886 716 l 5
 886 716 640 716 460 716 c 0
 280 716 135 591 135 411 c 0
 135 231 280 103 460 103 c 0
 640 103 886 103 886 103 c 13
 886 0 l 21
 886 0 697 0 460 0 c 0
EndSplineSet
EndChar

StartChar: R
Encoding: 82 82 85
Width: 920
Flags: HW
LayerCount: 2
Fore
SplineSet
42 819 m 5
 873 819 l 5
 873 716 l 5
 143 716 l 5
 143 0 l 5
 42 0 l 5
 42 819 l 5
EndSplineSet
EndChar

StartChar: S
Encoding: 83 83 86
Width: 920
Flags: HW
LayerCount: 2
Fore
SplineSet
512 586 m 1
 409 586 l 1
 409 226 l 1
 512 226 l 1
 512 586 l 1
888 357 m 1
 888 460 l 1
 42 96 l 1
 42 -12 l 1
 888 357 l 1
888 460 m 1
 42 829 l 1
 42 721 l 1
 888 357 l 1
 888 460 l 1
EndSplineSet
EndChar

StartChar: T
Encoding: 84 84 87
Width: 920
Flags: HW
LayerCount: 2
Fore
SplineSet
256 359 m 1
 256 462 l 1
 666 462 l 1
 666 359 l 1
 256 359 l 1
512 0 m 1
 409 0 l 1
 1 819 l 1
 104 819 l 1
 512 0 l 1
409 0 m 1
 817 819 l 1
 920 819 l 1
 512 0 l 1
 409 0 l 1
EndSplineSet
EndChar

StartChar: U
Encoding: 85 85 88
Width: 920
Flags: HW
LayerCount: 2
Fore
SplineSet
819 467 m 5
 819 364 l 5
 98 364 l 5
 98 467 l 5
 819 467 l 5
888 411 m 0
 888 174 697 -17 460 -17 c 0
 223 -17 32 174 32 411 c 0
 32 648 32 660 32 819 c 25
 135 819 l 17
 135 660 135 591 135 411 c 0
 135 231 280 86 460 86 c 0
 640 86 785 231 785 411 c 0
 785 591 785 659 785 819 c 25
 888 819 l 25
 888 659 888 648 888 411 c 0
EndSplineSet
EndChar

StartChar: V
Encoding: 86 86 89
Width: 920
Flags: HW
LayerCount: 2
Fore
SplineSet
512 0 m 5
 409 0 l 5
 1 819 l 5
 104 819 l 5
 512 0 l 5
409 0 m 5
 817 819 l 5
 920 819 l 5
 512 0 l 5
 409 0 l 5
EndSplineSet
EndChar

StartChar: W
Encoding: 87 87 90
Width: 920
Flags: HW
LayerCount: 2
Fore
SplineSet
234 113 m 5
 162 186 l 5
 685 709 l 5
 758 637 l 5
 234 113 l 5
162 637 m 5
 235 709 l 5
 758 186 l 5
 686 113 l 5
 162 637 l 5
230 181 m 4
 357 54 563 54 690 181 c 4
 817 308 817 514 690 641 c 4
 563 768 357 768 230 641 c 4
 103 514 103 308 230 181 c 4
157 108 m 4
 -11 276 -11 546 157 714 c 4
 325 882 595 882 763 714 c 4
 931 546 931 276 763 108 c 4
 595 -60 325 -60 157 108 c 4
EndSplineSet
EndChar

StartChar: X
Encoding: 88 88 91
Width: 920
Flags: HW
LayerCount: 2
Fore
SplineSet
495 374 m 1
 940 819 l 1
 795 819 l 1
 423 447 l 1
 495 374 l 1
795 0 m 1
 940 0 l 1
 121 819 l 1
 -24 819 l 1
 795 0 l 1
EndSplineSet
EndChar

StartChar: Y
Encoding: 89 89 92
Width: 920
Flags: HW
LayerCount: 2
Fore
SplineSet
90 360 m 1
 90 463 l 1
 830 463 l 1
 830 360 l 1
 90 360 l 1
135 411 m 0
 135 231 280 86 460 86 c 0
 640 86 785 231 785 411 c 0
 785 591 640 736 460 736 c 0
 280 736 135 591 135 411 c 0
32 411 m 0
 32 648 223 839 460 839 c 0
 697 839 888 648 888 411 c 0
 888 174 697 -17 460 -17 c 0
 223 -17 32 174 32 411 c 0
EndSplineSet
EndChar

StartChar: Z
Encoding: 90 90 93
Width: 920
Flags: HW
LayerCount: 2
Fore
SplineSet
424 371 m 1
 -24 819 l 1
 121 819 l 1
 496 444 l 1
 424 371 l 1
121 0 m 1
 -24 0 l 1
 795 819 l 1
 940 819 l 1
 121 0 l 1
EndSplineSet
EndChar

StartChar: bracketleft
Encoding: 91 91 94
Width: 920
Flags: HW
LayerCount: 2
Fore
SplineSet
795 0 m 25
 512 0 l 25
 512 819 l 25
 795 819 l 25
 795 716 l 1
 614 716 l 25
 616 103 l 25
 795 103 l 1
 795 0 l 25
EndSplineSet
EndChar

StartChar: backslash
Encoding: 92 92 95
Width: 920
Flags: HW
LayerCount: 2
Fore
SplineSet
795 0 m 1
 940 0 l 1
 121 819 l 1
 -24 819 l 1
 795 0 l 1
EndSplineSet
EndChar

StartChar: bracketright
Encoding: 93 93 96
Width: 920
Flags: HW
LayerCount: 2
Fore
SplineSet
126 0 m 25
 409 0 l 25
 409 819 l 25
 126 819 l 25
 126 716 l 1
 307 716 l 25
 305 103 l 25
 126 103 l 1
 126 0 l 25
EndSplineSet
EndChar

StartChar: asciicircum
Encoding: 94 94 97
Width: 920
Flags: HW
LayerCount: 2
Fore
SplineSet
277 357 m 1
 645 357 l 1
 645 460 l 1
 277 460 l 1
 277 357 l 1
512 819 m 1
 409 819 l 1
 614 357 l 1
 722 357 l 1
 512 819 l 1
409 819 m 1
 199 357 l 1
 307 357 l 1
 512 819 l 1
 409 819 l 1
EndSplineSet
EndChar

StartChar: underscore
Encoding: 95 95 98
Width: 920
Flags: HW
LayerCount: 2
Fore
SplineSet
42 0 m 1
 888 0 l 1
 888 103 l 1
 42 103 l 1
 42 0 l 1
EndSplineSet
EndChar

StartChar: a
Encoding: 97 97 100
Width: 920
Flags: HW
LayerCount: 2
Fore
SplineSet
409 1 m 5
 409 777 l 5
 512 777 l 5
 512 1 l 5
 409 1 l 5
32 411 m 0
 32 648 223 839 460 839 c 0
 697 839 888 648 888 411 c 0
 888 174 888 160 888 0 c 25
 785 0 l 17
 785 161 785 231 785 411 c 0
 785 591 640 736 460 736 c 0
 280 736 135 591 135 411 c 0
 135 231 135 160 135 0 c 25
 32 0 l 17
 32 160 32 174 32 411 c 0
EndSplineSet
EndChar

StartChar: b
Encoding: 98 98 101
Width: 920
Flags: HW
LayerCount: 2
Fore
SplineSet
42 357 m 5
 42 460 l 5
 888 96 l 5
 888 -12 l 5
 42 357 l 5
42 460 m 1
 888 829 l 1
 888 721 l 1
 42 357 l 1
 42 460 l 1
EndSplineSet
EndChar

StartChar: d
Encoding: 100 100 102
Width: 920
Flags: HW
LayerCount: 2
Fore
SplineSet
409 47 m 1
 512 47 l 1
 512 819 l 1
 409 819 l 1
 409 47 l 1
42 0 m 1
 888 0 l 1
 888 103 l 1
 42 103 l 1
 42 0 l 1
EndSplineSet
EndChar

StartChar: f
Encoding: 102 102 103
Width: 920
Flags: HW
LayerCount: 2
Fore
SplineSet
91 460 m 1
 884 460 l 1
 884 357 l 1
 91 357 l 1
 91 460 l 1
42 819 m 1
 145 819 l 1
 145 0 l 1
 42 0 l 1
 42 819 l 1
EndSplineSet
EndChar

StartChar: g
Encoding: 103 103 104
Width: 920
Flags: HW
LayerCount: 2
Fore
SplineSet
873 819 m 5
 42 819 l 5
 42 716 l 5
 772 716 l 5
 772 0 l 5
 873 0 l 5
 873 819 l 5
EndSplineSet
EndChar

StartChar: h
Encoding: 104 104 105
Width: 920
Flags: HW
LayerCount: 2
Fore
SplineSet
795 0 m 1
 421 374 l 1
 495 445 l 5
 940 0 l 1
 795 0 l 1
121 0 m 1
 -24 0 l 1
 795 819 l 1
 940 819 l 1
 121 0 l 1
EndSplineSet
EndChar

StartChar: i
Encoding: 105 105 106
Width: 920
Flags: HW
LayerCount: 2
Fore
SplineSet
509 58 m 1
 509 760 l 1
 406 760 l 1
 406 58 l 1
 509 58 l 1
458 0 m 0
 695 0 886 174 886 411 c 0
 886 648 695 819 458 819 c 0
 221 819 32 819 32 819 c 1
 32 716 l 1
 32 716 278 716 458 716 c 0
 638 716 783 591 783 411 c 0
 783 231 638 103 458 103 c 0
 278 103 32 103 32 103 c 9
 32 0 l 17
 32 0 221 0 458 0 c 0
EndSplineSet
EndChar

StartChar: j
Encoding: 106 106 107
Width: 920
Flags: HW
LayerCount: 2
Fore
SplineSet
873 0 m 5
 42 0 l 5
 42 103 l 5
 772 103 l 5
 772 819 l 5
 873 819 l 5
 873 0 l 5
EndSplineSet
EndChar

StartChar: k
Encoding: 107 107 108
Width: 920
Flags: HW
LayerCount: 2
Fore
SplineSet
460 0 m 0
 223 0 32 174 32 411 c 0
 32 648 223 819 460 819 c 0
 697 819 886 819 886 819 c 5
 886 716 l 5
 886 716 640 716 460 716 c 0
 280 716 135 591 135 411 c 0
 135 231 280 103 460 103 c 0
 640 103 886 103 886 103 c 13
 886 0 l 21
 886 0 697 0 460 0 c 0
EndSplineSet
EndChar

StartChar: l
Encoding: 108 108 109
Width: 920
Flags: HW
LayerCount: 2
Fore
SplineSet
42 0 m 5
 873 0 l 5
 873 103 l 5
 143 103 l 5
 143 819 l 5
 42 819 l 5
 42 0 l 5
EndSplineSet
EndChar

StartChar: m
Encoding: 109 109 110
Width: 920
Flags: HW
LayerCount: 2
Fore
SplineSet
888 411 m 4
 888 174 697 -17 460 -17 c 4
 223 -17 32 174 32 411 c 4
 32 648 32 660 32 819 c 29
 135 819 l 21
 135 660 135 591 135 411 c 4
 135 231 280 86 460 86 c 4
 640 86 785 231 785 411 c 4
 785 591 785 659 785 819 c 29
 888 819 l 29
 888 659 888 648 888 411 c 4
EndSplineSet
EndChar

StartChar: n
Encoding: 110 110 111
Width: 920
Flags: HW
LayerCount: 2
Fore
SplineSet
32 411 m 4
 32 648 223 839 460 839 c 4
 697 839 888 648 888 411 c 4
 888 174 888 160 888 0 c 29
 785 0 l 21
 785 161 785 231 785 411 c 4
 785 591 640 736 460 736 c 4
 280 736 135 591 135 411 c 4
 135 231 135 160 135 0 c 29
 32 0 l 21
 32 160 32 174 32 411 c 4
EndSplineSet
EndChar

StartChar: p
Encoding: 112 112 112
Width: 920
Flags: HW
LayerCount: 2
Fore
SplineSet
835 460 m 1
 42 460 l 1
 42 357 l 1
 835 357 l 1
 835 460 l 1
888 819 m 1
 781 819 l 1
 781 0 l 1
 888 0 l 1
 888 819 l 1
EndSplineSet
EndChar

StartChar: q
Encoding: 113 113 113
Width: 920
Flags: HW
LayerCount: 2
Fore
SplineSet
460 0 m 0
 223 0 32 174 32 411 c 0
 32 648 223 819 460 819 c 0
 697 819 886 819 886 819 c 5
 886 716 l 5
 886 716 640 716 460 716 c 0
 280 716 135 591 135 411 c 0
 135 231 280 103 460 103 c 0
 640 103 886 103 886 103 c 13
 886 0 l 21
 886 0 697 0 460 0 c 0
EndSplineSet
EndChar

StartChar: r
Encoding: 114 114 114
Width: 920
Flags: HW
LayerCount: 2
Fore
SplineSet
42 819 m 5
 873 819 l 5
 873 716 l 5
 143 716 l 5
 143 0 l 5
 42 0 l 5
 42 819 l 5
EndSplineSet
EndChar

StartChar: s
Encoding: 115 115 115
Width: 920
Flags: HW
LayerCount: 2
Fore
SplineSet
458 0 m 0
 695 0 886 174 886 411 c 0
 886 648 695 819 458 819 c 0
 221 819 32 819 32 819 c 1
 32 716 l 1
 32 716 278 716 458 716 c 0
 638 716 783 591 783 411 c 0
 783 231 638 103 458 103 c 0
 278 103 32 103 32 103 c 9
 32 0 l 17
 32 0 221 0 458 0 c 0
EndSplineSet
EndChar

StartChar: t
Encoding: 116 116 116
Width: 920
Flags: HW
LayerCount: 2
Fore
SplineSet
409 772 m 1
 512 772 l 1
 512 0 l 1
 409 0 l 1
 409 772 l 1
42 819 m 1
 888 819 l 1
 888 716 l 1
 42 716 l 1
 42 819 l 1
EndSplineSet
EndChar

StartChar: u
Encoding: 117 117 117
Width: 920
Flags: HW
LayerCount: 2
Fore
SplineSet
409 43 m 5
 409 819 l 5
 512 819 l 5
 512 43 l 5
 409 43 l 5
888 411 m 0
 888 174 697 -17 460 -17 c 0
 223 -17 32 174 32 411 c 0
 32 648 32 660 32 819 c 25
 135 819 l 17
 135 660 135 591 135 411 c 0
 135 231 280 86 460 86 c 0
 640 86 785 231 785 411 c 0
 785 591 785 659 785 819 c 25
 888 819 l 25
 888 659 888 648 888 411 c 0
EndSplineSet
EndChar

StartChar: v
Encoding: 118 118 118
Width: 920
Flags: HW
LayerCount: 2
Fore
SplineSet
512 0 m 5
 409 0 l 5
 1 819 l 5
 104 819 l 5
 512 0 l 5
409 0 m 5
 817 819 l 5
 920 819 l 5
 512 0 l 5
 409 0 l 5
EndSplineSet
EndChar

StartChar: w
Encoding: 119 119 119
Width: 920
Flags: HW
LayerCount: 2
Fore
SplineSet
90 360 m 5
 90 463 l 5
 830 463 l 5
 830 360 l 5
 90 360 l 5
409 781 m 1
 512 781 l 1
 512 41 l 1
 409 41 l 1
 409 781 l 1
135 411 m 0
 135 231 280 86 460 86 c 0
 640 86 785 231 785 411 c 0
 785 591 640 736 460 736 c 0
 280 736 135 591 135 411 c 0
32 411 m 0
 32 648 223 839 460 839 c 0
 697 839 888 648 888 411 c 0
 888 174 697 -17 460 -17 c 0
 223 -17 32 174 32 411 c 0
EndSplineSet
EndChar

StartChar: x
Encoding: 120 120 120
Width: 920
Flags: HW
LayerCount: 2
Fore
SplineSet
495 374 m 1
 940 819 l 1
 795 819 l 1
 423 447 l 1
 495 374 l 1
795 0 m 1
 940 0 l 1
 121 819 l 1
 -24 819 l 1
 795 0 l 1
EndSplineSet
EndChar

StartChar: y
Encoding: 121 121 121
Width: 920
Flags: HW
LayerCount: 2
Fore
SplineSet
90 360 m 1
 90 463 l 1
 830 463 l 1
 830 360 l 1
 90 360 l 1
135 411 m 0
 135 231 280 86 460 86 c 0
 640 86 785 231 785 411 c 0
 785 591 640 736 460 736 c 0
 280 736 135 591 135 411 c 0
32 411 m 0
 32 648 223 839 460 839 c 0
 697 839 888 648 888 411 c 0
 888 174 697 -17 460 -17 c 0
 223 -17 32 174 32 411 c 0
EndSplineSet
EndChar

StartChar: z
Encoding: 122 122 122
Width: 920
Flags: HW
LayerCount: 2
Fore
SplineSet
888 357 m 5
 888 460 l 5
 42 96 l 5
 42 -12 l 5
 888 357 l 5
888 460 m 5
 42 829 l 5
 42 721 l 5
 888 357 l 5
 888 460 l 5
EndSplineSet
EndChar

StartChar: braceleft
Encoding: 123 123 123
Width: 920
Flags: HW
LayerCount: 2
Fore
SplineSet
409 460 m 1
 718 460 l 1
 718 357 l 1
 409 357 l 1
 409 460 l 1
795 0 m 0
 558 0 512 174 512 411 c 0
 512 648 558 819 795 819 c 0
 795 716 l 0
 615 716 615 591 615 411 c 0
 615 231 615 103 795 103 c 0
 795 0 l 0
EndSplineSet
EndChar

StartChar: bar
Encoding: 124 124 124
Width: 920
Flags: HW
LayerCount: 2
Fore
SplineSet
409 819 m 1
 512 819 l 1
 512 0 l 1
 409 0 l 1
 409 819 l 1
EndSplineSet
EndChar

StartChar: braceright
Encoding: 125 125 125
Width: 920
Flags: HW
LayerCount: 2
Fore
SplineSet
615 460 m 1
 306 460 l 1
 306 357 l 1
 615 357 l 1
 615 460 l 1
229 0 m 0
 466 0 512 174 512 411 c 0
 512 648 466 819 229 819 c 0
 229 716 l 0
 409 716 409 591 409 411 c 0
 409 231 409 103 229 103 c 0
 229 0 l 0
EndSplineSet
EndChar

StartChar: asciitilde
Encoding: 126 126 126
Width: 920
Flags: HW
LayerCount: 2
Fore
SplineSet
654 254 m 3
 526 254 390 460 262 460 c 3
 134 460 42 357 42 357 c 1
 42 460 l 1
 42 460 134 563 262 563 c 3
 390 563 526 357 654 357 c 3
 782 357 888 460 888 460 c 1
 888 357 l 1
 888 357 782 254 654 254 c 3
EndSplineSet
EndChar

